<svg aria-hidden="true" style="width:0;height:0;position:absolute;overflow:hidden" xmlns="http://www.w3.org/2000/svg"><defs><symbol id="icon-loupe" viewBox="0 0 32 32"><path d="M11.698 2.867c-4.871 0-8.834 3.963-8.834 8.834 0 2.36.919 4.578 2.587 6.247s3.887 2.587 6.247 2.587c2.359 0 4.578-.919 6.246-2.587s2.588-3.887 2.588-6.247c0-4.871-3.963-8.834-8.834-8.834zm5.46 14.295c-1.459 1.459-3.398 2.262-5.46 2.262s-4.003-.804-5.461-2.262a7.675 7.675 0 0 1-2.261-5.461c0-4.258 3.465-7.722 7.722-7.722s7.722 3.464 7.722 7.722a7.67 7.67 0 0 1-2.262 5.46z"/><path d="m30.967 25.997-6.965-6.965-1.148 1.148-1.653-1.653c3.331-4.624 2.839-11.032-1.229-15.1a11.626 11.626 0 0 0-8.274-3.428 11.621 11.621 0 0 0-8.273 3.427c-4.562 4.563-4.562 11.986 0 16.548 4.067 4.068 10.474 4.56 15.099 1.229l1.653 1.653-1.149 1.149 6.965 6.965c.686.686 1.586 1.029 2.487 1.029s1.802-.343 2.487-1.029c.664-.664 1.03-1.547 1.03-2.487s-.366-1.823-1.03-2.487zm-.786 4.188a2.408 2.408 0 0 1-3.402 0L20.6 24.007l1.701-1.702-.786-.786-.552.553-2.344-2.343-.387.305c-4.206 3.306-10.234 2.944-14.021-.844-4.129-4.129-4.129-10.847 0-14.976 2-2 4.659-3.102 7.487-3.102s5.488 1.102 7.488 3.102c3.787 3.787 4.15 9.815.843 14.021l-.305.387 3.13 3.13 1.148-1.148 6.179 6.178c.454.455.705 1.058.705 1.701s-.25 1.247-.705 1.701z"/><path d="m28.352 28.612-1.569-1.569-.787.786 1.569 1.57c.33.329.714.378.914.378s.585-.049.915-.379l-.786-.786a.183.183 0 0 1-.257 0zM7.288 7.292a6.196 6.196 0 0 0-1.829 4.41h1.112c0-1.367.534-2.654 1.504-3.624s2.256-1.504 3.623-1.504h.001V5.462h-.001a6.2 6.2 0 0 0-4.41 1.829z"/></symbol></defs></svg>